<svg xmlns="http://www.w3.org/2000/svg" version="1.1" style="display: block;" viewBox="0 0 2048 2048" width="1000" height="1000" preserveAspectRatio="none">
<path transform="translate(0,0)" fill="rgb(180,2,0)" d="M 0 0 L 2048 0 L 2048 2048 L 0 2048 L 0 0 z"/>
<path transform="translate(0,0)" fill="rgb(18,17,17)" d="M 1177.17 568.203 C 1252.8 569.557 1329.31 567.587 1405.02 568.302 C 1470 568.916 1527.68 565.977 1592.35 574.812 C 1758.09 597.454 1861.85 687.574 1869.09 860.511 C 1878.85 1093.81 1732.17 1204.32 1512.75 1213.38 C 1475.37 1216.01 1428.06 1214.54 1389.79 1214.74 L 1389.87 1570.85 C 1319.57 1571.66 1247.47 1570.97 1177.1 1570.87 L 1177.17 568.203 z"/>
<path transform="translate(0,0)" fill="rgb(180,2,0)" d="M 1389.6 742.277 C 1421.32 742.368 1453.11 742.176 1484.81 742.386 C 1530.29 742.213 1587.51 749.71 1620.6 784.435 C 1664.28 830.279 1666.38 927.994 1628.65 978.235 C 1623.5 985.083 1617.89 990.811 1611.76 996.692 C 1551.89 1047.37 1464.28 1040.07 1389.86 1039.93 C 1388.82 940.98 1390.9 841.268 1389.6 742.277 z"/>
<path transform="translate(0,0)" fill="rgb(254,254,254)" d="M 798.059 568.205 L 1027.05 568.284 L 712.44 1065.57 L 1051.05 1570.86 L 1013.5 1570.88 L 808.2 1570.9 C 800.462 1557.03 789.679 1540.44 781.205 1526.66 L 729.526 1442.57 L 575.233 1191.53 L 342.142 1570.93 L 114.448 1570.86 L 447.038 1053.62 L 135.824 568.248 L 370.003 568.2 C 388.084 596.611 406.759 629.365 424.176 658.472 L 529.323 834.302 C 546.68 863.332 567.974 901.396 586.465 929.057 C 654.968 808.721 728.281 688.185 798.059 568.205 z"/>
</svg>
